<svg width="57" height="42" viewBox="0 0 57 42" fill="none" xmlns="http://www.w3.org/2000/svg">
<path d="M0 0H57V30C57 36.6274 51.6274 42 45 42H0V0Z" fill="#71BDA1"/>
<path fill-rule="evenodd" clip-rule="evenodd" d="M28.5303 15.2197C28.2374 14.9268 27.7626 14.9268 27.4697 15.2197C27.1768 15.5126 27.1768 15.9874 27.4697 16.2803L31.4393 20.25H22.75C22.3358 20.25 22 20.5858 22 21C22 21.4142 22.3358 21.75 22.75 21.75H31.4393L27.4697 25.7197C27.1768 26.0126 27.1768 26.4874 27.4697 26.7803C27.7626 27.0732 28.2374 27.0732 28.5303 26.7803L33.7803 21.5303C34.0732 21.2374 34.0732 20.7626 33.7803 20.4697L28.5303 15.2197Z" fill="white"/>
</svg>
