<svg width="30" height="30" viewBox="0 0 30 30" fill="none" xmlns="http://www.w3.org/2000/svg">
<path d="M24.4365 13.7464C23.8677 12.4662 23.0409 11.3172 22.0078 10.3713L21.1553 9.58905C21.1263 9.56322 21.0915 9.54488 21.0538 9.53566C21.0161 9.52644 20.9767 9.52661 20.9391 9.53615C20.9015 9.5457 20.8668 9.56433 20.8381 9.59041C20.8094 9.61649 20.7875 9.64922 20.7744 9.68573L20.3935 10.7785C20.1562 11.4641 19.7197 12.1643 19.1015 12.8528C19.0605 12.8967 19.0137 12.9085 18.9814 12.9114C18.9492 12.9143 18.8994 12.9085 18.8555 12.8674C18.8144 12.8323 18.7939 12.7796 18.7969 12.7268C18.9053 10.9631 18.3779 8.9738 17.2236 6.80871C16.2685 5.00984 14.9414 3.60648 13.2832 2.62794L12.0732 1.91601C11.915 1.82226 11.7129 1.94531 11.7217 2.12988L11.7861 3.53617C11.8301 4.49713 11.7187 5.34676 11.4551 6.05283C11.1328 6.91711 10.6699 7.71986 10.0781 8.44058C9.66627 8.94146 9.19948 9.39451 8.68652 9.7912C7.45109 10.7409 6.44652 11.9579 5.74805 13.3509C5.05129 14.756 4.68835 16.3031 4.6875 17.8715C4.6875 19.2543 4.95996 20.5932 5.49902 21.8559C6.01953 23.0717 6.77068 24.1751 7.71093 25.105C8.66015 26.0426 9.76171 26.7809 10.9893 27.2936C12.2607 27.8268 13.6084 28.0963 15 28.0963C16.3916 28.0963 17.7392 27.8268 19.0107 27.2965C20.2352 26.7868 21.3487 26.0434 22.289 25.108C23.2383 24.1705 23.9824 23.0747 24.501 21.8589C25.0392 20.5996 25.3153 19.2439 25.3125 17.8744C25.3125 16.4447 25.0195 15.056 24.4365 13.7464ZM20.8887 23.687C19.3154 25.2457 17.2266 26.1012 15 26.1012C12.7734 26.1012 10.6846 25.2457 9.11132 23.687C7.54394 22.1313 6.67969 20.0688 6.67969 17.8744C6.67969 16.6 6.96679 15.3782 7.53222 14.2415C8.083 13.1311 8.90332 12.1379 9.89941 11.3733C10.5347 10.8875 11.1109 10.329 11.6162 9.70917C12.3486 8.81559 12.9228 7.81947 13.3213 6.75011C13.4847 6.309 13.6035 5.8526 13.6758 5.38777C14.3818 6.03818 14.9736 6.82336 15.4687 7.7433C16.4473 9.57733 16.8984 11.2092 16.8105 12.5979C16.7895 12.925 16.843 13.2525 16.9668 13.556C17.0906 13.8595 17.2816 14.1309 17.5254 14.3499C17.7367 14.5408 17.9838 14.6877 18.2523 14.7823C18.5209 14.8769 18.8056 14.9171 19.0898 14.9007C19.667 14.8714 20.1972 14.6165 20.584 14.1858C20.9736 13.7493 21.3105 13.304 21.5918 12.8499C22.0019 13.3743 22.3447 13.9456 22.6172 14.5608C23.083 15.6097 23.3203 16.7259 23.3203 17.8744C23.3203 20.0688 22.456 22.1343 20.8887 23.687Z" fill="#12314E"/>
</svg>
