<svg width="22" height="28" viewBox="0 0 22 28" fill="none" xmlns="http://www.w3.org/2000/svg">
<path d="M20.4365 12.7464C19.8677 11.4662 19.0409 10.3172 18.0078 9.37129L17.1553 8.58905C17.1263 8.56322 17.0915 8.54488 17.0538 8.53566C17.0161 8.52644 16.9767 8.52661 16.9391 8.53615C16.9015 8.5457 16.8668 8.56433 16.8381 8.59041C16.8094 8.61649 16.7875 8.64922 16.7744 8.68573L16.3935 9.77853C16.1562 10.4641 15.7197 11.1643 15.1015 11.8528C15.0605 11.8967 15.0137 11.9085 14.9814 11.9114C14.9492 11.9143 14.8994 11.9085 14.8555 11.8674C14.8144 11.8323 14.7939 11.7796 14.7969 11.7268C14.9053 9.9631 14.3779 7.9738 13.2236 5.80871C12.2685 4.00984 10.9414 2.60648 9.28319 1.62794L8.07324 0.916012C7.91503 0.82226 7.71288 0.94531 7.72167 1.12988L7.78613 2.53617C7.83007 3.49713 7.71874 4.34676 7.45507 5.05283C7.13281 5.91711 6.66992 6.71986 6.07812 7.44058C5.66627 7.94146 5.19948 8.39451 4.68652 8.7912C3.45109 9.74093 2.44652 10.9579 1.74805 12.3509C1.05129 13.756 0.68835 15.3031 0.6875 16.8715C0.6875 18.2543 0.959961 19.5932 1.49902 20.8559C2.01953 22.0717 2.77068 23.1751 3.71093 24.105C4.66015 25.0426 5.76171 25.7809 6.98925 26.2936C8.26073 26.8268 9.60839 27.0963 11 27.0963C12.3916 27.0963 13.7392 26.8268 15.0107 26.2965C16.2352 25.7868 17.3487 25.0434 18.289 24.108C19.2383 23.1705 19.9824 22.0747 20.501 20.8589C21.0392 19.5996 21.3153 18.2439 21.3125 16.8744C21.3125 15.4447 21.0195 14.056 20.4365 12.7464ZM16.8887 22.687C15.3154 24.2457 13.2266 25.1012 11 25.1012C8.77343 25.1012 6.68456 24.2457 5.11132 22.687C3.54394 21.1313 2.67969 19.0688 2.67969 16.8744C2.67969 15.6 2.96679 14.3782 3.53222 13.2415C4.083 12.1311 4.90332 11.1379 5.89941 10.3733C6.53468 9.8875 7.11087 9.32899 7.6162 8.70917C8.34863 7.81559 8.92284 6.81947 9.32128 5.75011C9.48472 5.309 9.60348 4.8526 9.67577 4.38777C10.3818 5.03818 10.9736 5.82336 11.4687 6.7433C12.4473 8.57733 12.8984 10.2092 12.8105 11.5979C12.7895 11.925 12.843 12.2525 12.9668 12.556C13.0906 12.8595 13.2816 13.1309 13.5254 13.3499C13.7367 13.5408 13.9838 13.6877 14.2523 13.7823C14.5209 13.8769 14.8056 13.9171 15.0898 13.9007C15.667 13.8714 16.1972 13.6165 16.584 13.1858C16.9736 12.7493 17.3105 12.304 17.5918 11.8499C18.0019 12.3743 18.3447 12.9456 18.6172 13.5608C19.083 14.6097 19.3203 15.7259 19.3203 16.8744C19.3203 19.0688 18.456 21.1343 16.8887 22.687Z" fill="#12314E"/>
</svg>
