<svg width="21" height="21" viewBox="0 0 21 21" fill="none" xmlns="http://www.w3.org/2000/svg">
<path d="M20.75 19.6895L15.086 14.0255C16.4471 12.3915 17.1258 10.2956 16.981 8.17392C16.8362 6.05222 15.8789 4.06804 14.3084 2.63413C12.7379 1.20023 10.675 0.427001 8.54896 0.47531C6.42287 0.523618 4.39726 1.38974 2.8935 2.8935C1.38974 4.39726 0.523618 6.42288 0.47531 8.54896C0.427001 10.6751 1.20023 12.7379 2.63413 14.3084C4.06804 15.8789 6.05222 16.8362 8.17392 16.981C10.2956 17.1258 12.3915 16.4471 14.0255 15.086L19.6895 20.75L20.75 19.6895ZM1.99999 8.75C1.99999 7.41497 2.39588 6.10993 3.13758 4.9999C3.87927 3.88986 4.93348 3.0247 6.16688 2.51381C7.40028 2.00292 8.75748 1.86924 10.0669 2.12969C11.3762 2.39014 12.579 3.03302 13.523 3.97702C14.467 4.92103 15.1098 6.12376 15.3703 7.43314C15.6307 8.74251 15.4971 10.0997 14.9862 11.3331C14.4753 12.5665 13.6101 13.6207 12.5001 14.3624C11.3901 15.1041 10.085 15.5 8.74999 15.5C6.96039 15.498 5.24466 14.7862 3.97922 13.5208C2.71378 12.2553 2.00198 10.5396 1.99999 8.75Z" fill="#44AD9F"/>
</svg>
